<?xml version="1.0" encoding="UTF-8" standalone="no"?>
<!-- Created with Inkscape (http://www.inkscape.org/) -->

<svg
   width="512"
   height="512"
   viewBox="0 0 512 512"
   version="1.1"
   id="svg1"
   inkscape:version="1.4.4 (dcaf3e7d9e, 2026-05-05)"
   sodipodi:docname="disc_placeholder.svg"
   xmlns:inkscape="http://www.inkscape.org/namespaces/inkscape"
   xmlns:sodipodi="http://sodipodi.sourceforge.net/DTD/sodipodi-0.dtd"
   xmlns="http://www.w3.org/2000/svg"
   xmlns:svg="http://www.w3.org/2000/svg">
  <sodipodi:namedview
     id="namedview1"
     pagecolor="#ffffff"
     bordercolor="#000000"
     borderopacity="0.25"
     inkscape:showpageshadow="2"
     inkscape:pageopacity="0.0"
     inkscape:pagecheckerboard="true"
     inkscape:deskcolor="#d1d1d1"
     inkscape:document-units="px"
     inkscape:zoom="1.6006577"
     inkscape:cx="256.14471"
     inkscape:cy="241.77562"
     inkscape:window-width="2560"
     inkscape:window-height="1368"
     inkscape:window-x="0"
     inkscape:window-y="0"
     inkscape:window-maximized="1"
     inkscape:current-layer="layer1"
     inkscape:clip-to-page="false" />
  <defs
     id="defs1" />
  <g
     inkscape:label="Layer 1"
     inkscape:groupmode="layer"
     id="layer1"
     transform="translate(0.16796875,-1.0820312)">
    <path
       id="path1"
       style="fill:#4e4e4e;fill-opacity:1"
       d="M 255.83203,1.0820318 A 256,256 0 0 0 -0.16796813,257.08203 a 256,256 0 0 0 255.99999813,256 256,256 0 0 0 256,-256 256,256 0 0 0 -256,-255.9999982 z M 256,210.39453 A 45.605999,45.606255 0 0 1 301.60547,256 45.605999,45.606255 0 0 1 256,301.60547 45.605999,45.606255 0 0 1 210.39453,256 45.605999,45.606255 0 0 1 256,210.39453 Z" />
  </g>
</svg>
